<svg width="170" height="170" viewBox="0 0 170 170" fill="none" xmlns="http://www.w3.org/2000/svg">
<mask id="path-1-inside-1_11220_3513" fill="white">
<path fill-rule="evenodd" clip-rule="evenodd" d="M119.257 34.2637C120.452 33.0681 121.124 31.4466 121.124 29.7559C121.124 28.0651 120.452 26.4436 119.257 25.2481C118.061 24.0525 116.44 23.3809 114.749 23.3809C113.058 23.3809 111.436 24.0525 110.241 25.2481C109.045 26.4436 108.374 28.0651 108.374 29.7559C108.374 31.4466 109.045 33.0681 110.241 34.2637C111.436 35.4592 113.058 36.1309 114.749 36.1309C116.44 36.1309 118.061 35.4592 119.257 34.2637ZM52.1037 85.0059H42.9237C39.0873 85.025 35.3277 86.0824 32.0437 88.0659L14.7887 98.3509C14.3088 98.6411 13.8906 99.023 13.5583 99.4748C13.2259 99.9266 12.9857 100.439 12.8516 100.984C12.7174 101.529 12.6918 102.094 12.7762 102.649C12.8607 103.203 13.0535 103.736 13.3437 104.216C13.634 104.696 14.0159 105.114 14.4677 105.446C14.9195 105.779 15.4324 106.019 15.977 106.153C16.5216 106.287 17.0873 106.313 17.6418 106.228C18.1963 106.144 18.7288 105.951 19.2087 105.661L33.9987 96.7359V131.756C33.9987 137.392 36.2376 142.797 40.2227 146.782C44.2079 150.767 49.6129 153.006 55.2487 153.006H114.749C120.385 153.006 125.79 150.767 129.775 146.782C133.76 142.797 135.999 137.392 135.999 131.756V96.7359L150.789 105.661C151.269 105.951 151.801 106.144 152.356 106.228C152.91 106.313 153.476 106.287 154.021 106.153C154.565 106.019 155.078 105.779 155.53 105.446C155.982 105.114 156.364 104.696 156.654 104.216C156.944 103.736 157.137 103.203 157.221 102.649C157.306 102.094 157.28 101.529 157.146 100.984C157.012 100.439 156.772 99.9266 156.439 99.4748C156.107 99.023 155.689 98.6411 155.209 98.3509L137.954 88.0659C134.724 86.0259 130.899 85.0059 127.074 85.0059H117.044C114.33 93.6336 108.936 101.171 101.644 106.521C94.3517 111.872 85.5431 114.756 76.4987 114.756C74.26 114.757 72.0603 114.169 70.1209 113.051C68.1815 111.932 66.5708 110.323 65.4508 108.384C64.3308 106.446 63.7409 104.247 63.7406 102.008C63.7402 99.7691 64.3293 97.5697 65.4487 95.6309C60.0087 93.5059 55.4187 89.7659 52.1037 85.0059ZM143.254 43.7507C144.051 44.5477 144.499 45.6287 144.499 46.7559V51.0059H148.749C149.876 51.0059 150.957 51.4536 151.754 52.2507C152.551 53.0477 152.999 54.1287 152.999 55.2559C152.999 56.383 152.551 57.464 151.754 58.2611C150.957 59.0581 149.876 59.5059 148.749 59.5059H144.499V63.7559C144.499 64.883 144.051 65.964 143.254 66.7611C142.457 67.5581 141.376 68.0059 140.249 68.0059C139.122 68.0059 138.041 67.5581 137.244 66.7611C136.447 65.964 135.999 64.883 135.999 63.7559V59.5059H131.749C130.622 59.5059 129.541 59.0581 128.744 58.2611C127.947 57.464 127.499 56.383 127.499 55.2559C127.499 54.1287 127.947 53.0477 128.744 52.2507C129.541 51.4536 130.622 51.0059 131.749 51.0059H135.999V46.7559C135.999 45.6287 136.447 44.5477 137.244 43.7507C138.041 42.9536 139.122 42.5059 140.249 42.5059C141.376 42.5059 142.457 42.9536 143.254 43.7507Z"/>
<path d="M80.7487 42.5059C73.9857 42.5059 67.4997 45.1925 62.7175 49.9746C57.9353 54.7568 55.2487 61.2428 55.2487 68.0059C55.2487 73.6417 57.4876 79.0467 61.4727 83.0319C65.4579 87.017 70.8629 89.2559 76.4987 89.2559C81.0074 89.2559 85.3314 87.4648 88.5196 84.2767C91.7077 81.0886 93.4987 76.7645 93.4987 72.2559C93.4987 65.2009 87.8037 59.5059 80.7487 59.5059C78.4944 59.5059 76.3324 60.4014 74.7383 61.9955C73.1443 63.5895 72.2487 65.7515 72.2487 68.0059C72.2487 69.133 72.6965 70.214 73.4935 71.0111C74.2906 71.8081 75.3716 72.2559 76.4987 72.2559C77.6259 72.2559 78.7069 71.8081 79.504 71.0111C80.301 70.214 80.7487 69.133 80.7487 68.0059C83.1287 68.0059 84.9987 69.8759 84.9987 72.2559C84.9987 74.5102 84.1032 76.6722 82.5091 78.2663C80.9151 79.8603 78.7531 80.7559 76.4987 80.7559C73.1172 80.7559 69.8742 79.4126 67.4831 77.0215C65.092 74.6304 63.7487 71.3874 63.7487 68.0059C63.7487 58.6559 71.3987 51.0059 80.7487 51.0059C83.5393 51.0059 86.3026 51.5555 88.8808 52.6234C91.4589 53.6913 93.8015 55.2566 95.7748 57.2298C97.748 59.2031 99.3133 61.5457 100.381 64.1238C101.449 66.702 101.999 69.4653 101.999 72.2559C101.999 79.0189 99.3122 85.5049 94.53 90.2871C89.7478 95.0693 83.2618 97.7559 76.4987 97.7559C75.3716 97.7559 74.2906 98.2036 73.4935 99.0007C72.6965 99.7977 72.2487 100.879 72.2487 102.006C72.2487 103.133 72.6965 104.214 73.4935 105.011C74.2906 105.808 75.3716 106.256 76.4987 106.256C85.5161 106.256 94.1641 102.674 100.54 96.2975C106.917 89.9213 110.499 81.2732 110.499 72.2559C110.499 64.3657 107.364 56.7986 101.785 51.2194C96.206 45.6402 88.6389 42.5059 80.7487 42.5059Z"/>
</mask>
<path fill-rule="evenodd" clip-rule="evenodd" d="M119.257 34.2637C120.452 33.0681 121.124 31.4466 121.124 29.7559C121.124 28.0651 120.452 26.4436 119.257 25.2481C118.061 24.0525 116.44 23.3809 114.749 23.3809C113.058 23.3809 111.436 24.0525 110.241 25.2481C109.045 26.4436 108.374 28.0651 108.374 29.7559C108.374 31.4466 109.045 33.0681 110.241 34.2637C111.436 35.4592 113.058 36.1309 114.749 36.1309C116.44 36.1309 118.061 35.4592 119.257 34.2637ZM52.1037 85.0059H42.9237C39.0873 85.025 35.3277 86.0824 32.0437 88.0659L14.7887 98.3509C14.3088 98.6411 13.8906 99.023 13.5583 99.4748C13.2259 99.9266 12.9857 100.439 12.8516 100.984C12.7174 101.529 12.6918 102.094 12.7762 102.649C12.8607 103.203 13.0535 103.736 13.3437 104.216C13.634 104.696 14.0159 105.114 14.4677 105.446C14.9195 105.779 15.4324 106.019 15.977 106.153C16.5216 106.287 17.0873 106.313 17.6418 106.228C18.1963 106.144 18.7288 105.951 19.2087 105.661L33.9987 96.7359V131.756C33.9987 137.392 36.2376 142.797 40.2227 146.782C44.2079 150.767 49.6129 153.006 55.2487 153.006H114.749C120.385 153.006 125.79 150.767 129.775 146.782C133.76 142.797 135.999 137.392 135.999 131.756V96.7359L150.789 105.661C151.269 105.951 151.801 106.144 152.356 106.228C152.91 106.313 153.476 106.287 154.021 106.153C154.565 106.019 155.078 105.779 155.53 105.446C155.982 105.114 156.364 104.696 156.654 104.216C156.944 103.736 157.137 103.203 157.221 102.649C157.306 102.094 157.28 101.529 157.146 100.984C157.012 100.439 156.772 99.9266 156.439 99.4748C156.107 99.023 155.689 98.6411 155.209 98.3509L137.954 88.0659C134.724 86.0259 130.899 85.0059 127.074 85.0059H117.044C114.33 93.6336 108.936 101.171 101.644 106.521C94.3517 111.872 85.5431 114.756 76.4987 114.756C74.26 114.757 72.0603 114.169 70.1209 113.051C68.1815 111.932 66.5708 110.323 65.4508 108.384C64.3308 106.446 63.7409 104.247 63.7406 102.008C63.7402 99.7691 64.3293 97.5697 65.4487 95.6309C60.0087 93.5059 55.4187 89.7659 52.1037 85.0059ZM143.254 43.7507C144.051 44.5477 144.499 45.6287 144.499 46.7559V51.0059H148.749C149.876 51.0059 150.957 51.4536 151.754 52.2507C152.551 53.0477 152.999 54.1287 152.999 55.2559C152.999 56.383 152.551 57.464 151.754 58.2611C150.957 59.0581 149.876 59.5059 148.749 59.5059H144.499V63.7559C144.499 64.883 144.051 65.964 143.254 66.7611C142.457 67.5581 141.376 68.0059 140.249 68.0059C139.122 68.0059 138.041 67.5581 137.244 66.7611C136.447 65.964 135.999 64.883 135.999 63.7559V59.5059H131.749C130.622 59.5059 129.541 59.0581 128.744 58.2611C127.947 57.464 127.499 56.383 127.499 55.2559C127.499 54.1287 127.947 53.0477 128.744 52.2507C129.541 51.4536 130.622 51.0059 131.749 51.0059H135.999V46.7559C135.999 45.6287 136.447 44.5477 137.244 43.7507C138.041 42.9536 139.122 42.5059 140.249 42.5059C141.376 42.5059 142.457 42.9536 143.254 43.7507Z" fill="url(#paint0_radial_11220_3513)"/>
<path d="M80.7487 42.5059C73.9857 42.5059 67.4997 45.1925 62.7175 49.9746C57.9353 54.7568 55.2487 61.2428 55.2487 68.0059C55.2487 73.6417 57.4876 79.0467 61.4727 83.0319C65.4579 87.017 70.8629 89.2559 76.4987 89.2559C81.0074 89.2559 85.3314 87.4648 88.5196 84.2767C91.7077 81.0886 93.4987 76.7645 93.4987 72.2559C93.4987 65.2009 87.8037 59.5059 80.7487 59.5059C78.4944 59.5059 76.3324 60.4014 74.7383 61.9955C73.1443 63.5895 72.2487 65.7515 72.2487 68.0059C72.2487 69.133 72.6965 70.214 73.4935 71.0111C74.2906 71.8081 75.3716 72.2559 76.4987 72.2559C77.6259 72.2559 78.7069 71.8081 79.504 71.0111C80.301 70.214 80.7487 69.133 80.7487 68.0059C83.1287 68.0059 84.9987 69.8759 84.9987 72.2559C84.9987 74.5102 84.1032 76.6722 82.5091 78.2663C80.9151 79.8603 78.7531 80.7559 76.4987 80.7559C73.1172 80.7559 69.8742 79.4126 67.4831 77.0215C65.092 74.6304 63.7487 71.3874 63.7487 68.0059C63.7487 58.6559 71.3987 51.0059 80.7487 51.0059C83.5393 51.0059 86.3026 51.5555 88.8808 52.6234C91.4589 53.6913 93.8015 55.2566 95.7748 57.2298C97.748 59.2031 99.3133 61.5457 100.381 64.1238C101.449 66.702 101.999 69.4653 101.999 72.2559C101.999 79.0189 99.3122 85.5049 94.53 90.2871C89.7478 95.0693 83.2618 97.7559 76.4987 97.7559C75.3716 97.7559 74.2906 98.2036 73.4935 99.0007C72.6965 99.7977 72.2487 100.879 72.2487 102.006C72.2487 103.133 72.6965 104.214 73.4935 105.011C74.2906 105.808 75.3716 106.256 76.4987 106.256C85.5161 106.256 94.1641 102.674 100.54 96.2975C106.917 89.9213 110.499 81.2732 110.499 72.2559C110.499 64.3657 107.364 56.7986 101.785 51.2194C96.206 45.6402 88.6389 42.5059 80.7487 42.5059Z" fill="url(#paint1_radial_11220_3513)"/>
<path d="M80.7487 42.5059C73.9857 42.5059 67.4997 45.1925 62.7175 49.9746C57.9353 54.7568 55.2487 61.2428 55.2487 68.0059C55.2487 73.6417 57.4876 79.0467 61.4727 83.0319C65.4579 87.017 70.8629 89.2559 76.4987 89.2559C81.0074 89.2559 85.3314 87.4648 88.5196 84.2767C91.7077 81.0886 93.4987 76.7645 93.4987 72.2559C93.4987 65.2009 87.8037 59.5059 80.7487 59.5059C78.4944 59.5059 76.3324 60.4014 74.7383 61.9955C73.1443 63.5895 72.2487 65.7515 72.2487 68.0059C72.2487 69.133 72.6965 70.214 73.4935 71.0111C74.2906 71.8081 75.3716 72.2559 76.4987 72.2559C77.6259 72.2559 78.7069 71.8081 79.504 71.0111C80.301 70.214 80.7487 69.133 80.7487 68.0059C83.1287 68.0059 84.9987 69.8759 84.9987 72.2559C84.9987 74.5102 84.1032 76.6722 82.5091 78.2663C80.9151 79.8603 78.7531 80.7559 76.4987 80.7559C73.1172 80.7559 69.8742 79.4126 67.4831 77.0215C65.092 74.6304 63.7487 71.3874 63.7487 68.0059C63.7487 58.6559 71.3987 51.0059 80.7487 51.0059C83.5393 51.0059 86.3026 51.5555 88.8808 52.6234C91.4589 53.6913 93.8015 55.2566 95.7748 57.2298C97.748 59.2031 99.3133 61.5457 100.381 64.1238C101.449 66.702 101.999 69.4653 101.999 72.2559C101.999 79.0189 99.3122 85.5049 94.53 90.2871C89.7478 95.0693 83.2618 97.7559 76.4987 97.7559C75.3716 97.7559 74.2906 98.2036 73.4935 99.0007C72.6965 99.7977 72.2487 100.879 72.2487 102.006C72.2487 103.133 72.6965 104.214 73.4935 105.011C74.2906 105.808 75.3716 106.256 76.4987 106.256C85.5161 106.256 94.1641 102.674 100.54 96.2975C106.917 89.9213 110.499 81.2732 110.499 72.2559C110.499 64.3657 107.364 56.7986 101.785 51.2194C96.206 45.6402 88.6389 42.5059 80.7487 42.5059Z" fill="url(#paint2_linear_11220_3513)"/>
<path fill-rule="evenodd" clip-rule="evenodd" d="M119.257 34.2637C120.452 33.0681 121.124 31.4466 121.124 29.7559C121.124 28.0651 120.452 26.4436 119.257 25.2481C118.061 24.0525 116.44 23.3809 114.749 23.3809C113.058 23.3809 111.436 24.0525 110.241 25.2481C109.045 26.4436 108.374 28.0651 108.374 29.7559C108.374 31.4466 109.045 33.0681 110.241 34.2637C111.436 35.4592 113.058 36.1309 114.749 36.1309C116.44 36.1309 118.061 35.4592 119.257 34.2637ZM52.1037 85.0059H42.9237C39.0873 85.025 35.3277 86.0824 32.0437 88.0659L14.7887 98.3509C14.3088 98.6411 13.8906 99.023 13.5583 99.4748C13.2259 99.9266 12.9857 100.439 12.8516 100.984C12.7174 101.529 12.6918 102.094 12.7762 102.649C12.8607 103.203 13.0535 103.736 13.3437 104.216C13.634 104.696 14.0159 105.114 14.4677 105.446C14.9195 105.779 15.4324 106.019 15.977 106.153C16.5216 106.287 17.0873 106.313 17.6418 106.228C18.1963 106.144 18.7288 105.951 19.2087 105.661L33.9987 96.7359V131.756C33.9987 137.392 36.2376 142.797 40.2227 146.782C44.2079 150.767 49.6129 153.006 55.2487 153.006H114.749C120.385 153.006 125.79 150.767 129.775 146.782C133.76 142.797 135.999 137.392 135.999 131.756V96.7359L150.789 105.661C151.269 105.951 151.801 106.144 152.356 106.228C152.91 106.313 153.476 106.287 154.021 106.153C154.565 106.019 155.078 105.779 155.53 105.446C155.982 105.114 156.364 104.696 156.654 104.216C156.944 103.736 157.137 103.203 157.221 102.649C157.306 102.094 157.28 101.529 157.146 100.984C157.012 100.439 156.772 99.9266 156.439 99.4748C156.107 99.023 155.689 98.6411 155.209 98.3509L137.954 88.0659C134.724 86.0259 130.899 85.0059 127.074 85.0059H117.044C114.33 93.6336 108.936 101.171 101.644 106.521C94.3517 111.872 85.5431 114.756 76.4987 114.756C74.26 114.757 72.0603 114.169 70.1209 113.051C68.1815 111.932 66.5708 110.323 65.4508 108.384C64.3308 106.446 63.7409 104.247 63.7406 102.008C63.7402 99.7691 64.3293 97.5697 65.4487 95.6309C60.0087 93.5059 55.4187 89.7659 52.1037 85.0059ZM143.254 43.7507C144.051 44.5477 144.499 45.6287 144.499 46.7559V51.0059H148.749C149.876 51.0059 150.957 51.4536 151.754 52.2507C152.551 53.0477 152.999 54.1287 152.999 55.2559C152.999 56.383 152.551 57.464 151.754 58.2611C150.957 59.0581 149.876 59.5059 148.749 59.5059H144.499V63.7559C144.499 64.883 144.051 65.964 143.254 66.7611C142.457 67.5581 141.376 68.0059 140.249 68.0059C139.122 68.0059 138.041 67.5581 137.244 66.7611C136.447 65.964 135.999 64.883 135.999 63.7559V59.5059H131.749C130.622 59.5059 129.541 59.0581 128.744 58.2611C127.947 57.464 127.499 56.383 127.499 55.2559C127.499 54.1287 127.947 53.0477 128.744 52.2507C129.541 51.4536 130.622 51.0059 131.749 51.0059H135.999V46.7559C135.999 45.6287 136.447 44.5477 137.244 43.7507C138.041 42.9536 139.122 42.5059 140.249 42.5059C141.376 42.5059 142.457 42.9536 143.254 43.7507Z" stroke="url(#paint3_linear_11220_3513)" stroke-width="2" mask="url(#path-1-inside-1_11220_3513)"/>
<path d="M80.7487 42.5059C73.9857 42.5059 67.4997 45.1925 62.7175 49.9746C57.9353 54.7568 55.2487 61.2428 55.2487 68.0059C55.2487 73.6417 57.4876 79.0467 61.4727 83.0319C65.4579 87.017 70.8629 89.2559 76.4987 89.2559C81.0074 89.2559 85.3314 87.4648 88.5196 84.2767C91.7077 81.0886 93.4987 76.7645 93.4987 72.2559C93.4987 65.2009 87.8037 59.5059 80.7487 59.5059C78.4944 59.5059 76.3324 60.4014 74.7383 61.9955C73.1443 63.5895 72.2487 65.7515 72.2487 68.0059C72.2487 69.133 72.6965 70.214 73.4935 71.0111C74.2906 71.8081 75.3716 72.2559 76.4987 72.2559C77.6259 72.2559 78.7069 71.8081 79.504 71.0111C80.301 70.214 80.7487 69.133 80.7487 68.0059C83.1287 68.0059 84.9987 69.8759 84.9987 72.2559C84.9987 74.5102 84.1032 76.6722 82.5091 78.2663C80.9151 79.8603 78.7531 80.7559 76.4987 80.7559C73.1172 80.7559 69.8742 79.4126 67.4831 77.0215C65.092 74.6304 63.7487 71.3874 63.7487 68.0059C63.7487 58.6559 71.3987 51.0059 80.7487 51.0059C83.5393 51.0059 86.3026 51.5555 88.8808 52.6234C91.4589 53.6913 93.8015 55.2566 95.7748 57.2298C97.748 59.2031 99.3133 61.5457 100.381 64.1238C101.449 66.702 101.999 69.4653 101.999 72.2559C101.999 79.0189 99.3122 85.5049 94.53 90.2871C89.7478 95.0693 83.2618 97.7559 76.4987 97.7559C75.3716 97.7559 74.2906 98.2036 73.4935 99.0007C72.6965 99.7977 72.2487 100.879 72.2487 102.006C72.2487 103.133 72.6965 104.214 73.4935 105.011C74.2906 105.808 75.3716 106.256 76.4987 106.256C85.5161 106.256 94.1641 102.674 100.54 96.2975C106.917 89.9213 110.499 81.2732 110.499 72.2559C110.499 64.3657 107.364 56.7986 101.785 51.2194C96.206 45.6402 88.6389 42.5059 80.7487 42.5059Z" stroke="url(#paint4_linear_11220_3513)" stroke-width="2" mask="url(#path-1-inside-1_11220_3513)"/>
<defs>
<radialGradient id="paint0_radial_11220_3513" cx="0" cy="0" r="1" gradientTransform="matrix(-116.51 192.695 -156.418 -102.06 163.116 -8.18323)" gradientUnits="userSpaceOnUse">
<stop stop-color="#076EFF"/>
<stop offset="1" stop-color="#0C0C0D" stop-opacity="0"/>
</radialGradient>
<radialGradient id="paint1_radial_11220_3513" cx="0" cy="0" r="1" gradientTransform="matrix(-116.51 192.695 -156.418 -102.06 163.116 -8.18323)" gradientUnits="userSpaceOnUse">
<stop stop-color="#076EFF"/>
<stop offset="1" stop-color="#0C0C0D" stop-opacity="0"/>
</radialGradient>
<linearGradient id="paint2_linear_11220_3513" x1="91.2349" y1="88.6296" x2="143.764" y2="116.174" gradientUnits="userSpaceOnUse">
<stop stop-color="#446EFF"/>
<stop offset="0.332891" stop-color="#2E96FF"/>
<stop offset="0.72241" stop-color="#B1C5FF"/>
</linearGradient>
<linearGradient id="paint3_linear_11220_3513" x1="30.1852" y1="52.08" x2="145.349" y2="95.1506" gradientUnits="userSpaceOnUse">
<stop stop-color="#B1C5FF"/>
<stop offset="0.7" stop-color="#217BFE"/>
<stop offset="1" stop-opacity="0"/>
</linearGradient>
<linearGradient id="paint4_linear_11220_3513" x1="30.1852" y1="52.08" x2="145.349" y2="95.1506" gradientUnits="userSpaceOnUse">
<stop stop-color="#B1C5FF"/>
<stop offset="0.7" stop-color="#217BFE"/>
<stop offset="1" stop-opacity="0"/>
</linearGradient>
</defs>
</svg>
