<svg width="170" height="170" viewBox="0 0 170 170" fill="none" xmlns="http://www.w3.org/2000/svg">
<path fill-rule="evenodd" clip-rule="evenodd" d="M32.9658 32.9805C37.748 28.1983 44.2341 25.5117 50.9971 25.5117H118.997C125.76 25.5117 132.246 28.1983 137.028 32.9805C141.81 37.7627 144.497 44.2487 144.497 51.0117V76.5117C141.607 76.6817 138.717 77.3617 135.997 78.4667V51.0117C135.997 46.503 134.206 42.179 131.018 38.9909C127.83 35.8028 123.506 34.0117 118.997 34.0117H50.9971C41.6471 34.0117 33.9971 41.6617 33.9971 51.0117V119.012C33.9971 123.52 35.7881 127.844 38.9763 131.033C42.1644 134.221 46.4884 136.012 50.9971 136.012H80.5771L80.1521 137.372L78.3671 144.512H50.9971C44.2341 144.512 37.748 141.825 32.9658 137.043C28.1837 132.261 25.4971 125.775 25.4971 119.012V51.0117C25.4971 44.2487 28.1837 37.7627 32.9658 32.9805ZM76.4036 65.371C76.1121 65.9056 75.7092 66.3714 75.2221 66.7367L57.0321 85.0117L75.2221 103.287C75.8359 104.105 76.1339 105.118 76.0614 106.138C75.9889 107.158 75.5507 108.119 74.8273 108.842C74.1039 109.565 73.1438 110.004 72.1233 110.076C71.1029 110.149 70.0905 109.851 69.2721 109.237L48.0221 87.9867C47.2434 87.1923 46.8072 86.1242 46.8072 85.0117C46.8072 83.8993 47.2434 82.8312 48.0221 82.0367L69.2721 60.7867C69.6374 60.2996 70.1032 59.8967 70.6378 59.6052C71.1724 59.3138 71.7634 59.1406 72.3708 59.0974C72.9782 59.0542 73.5877 59.1421 74.1582 59.355C74.7287 59.5679 75.2467 59.901 75.6773 60.3315C76.1078 60.7621 76.4409 61.2801 76.6538 61.8506C76.8667 62.4211 76.9546 63.0306 76.9114 63.638C76.8682 64.2454 76.695 64.8364 76.4036 65.371ZM97.8708 59.9474C98.8913 59.8749 99.9037 60.1729 100.722 60.7867L121.972 82.0367C122.751 82.8312 123.187 83.8993 123.187 85.0117C123.187 86.1242 122.751 87.1923 121.972 87.9867L100.722 109.237C99.9037 109.851 98.8913 110.149 97.8708 110.076C96.8503 110.004 95.8903 109.565 95.1669 108.842C94.4435 108.119 94.0053 107.158 93.9328 106.138C93.8602 105.118 94.1582 104.105 94.7721 103.287L112.962 85.0117L94.7721 66.7367C94.1582 65.9183 93.8602 64.9059 93.9328 63.8854C94.0053 62.865 94.4435 61.9049 95.1669 61.1815C95.8903 60.4581 96.8503 60.0199 97.8708 59.9474Z" fill="url(#paint0_radial_11205_3510)"/>
<path d="M93.3271 130.742L134.382 89.6867C135.821 88.0676 137.576 86.7597 139.538 85.8432C141.501 84.9268 143.63 84.4212 145.796 84.3575C147.961 84.2937 150.116 84.6732 152.129 85.4726C154.142 86.272 155.971 87.4744 157.503 89.0061C159.034 90.5378 160.237 92.3664 161.036 94.3796C161.836 96.3928 162.215 98.5481 162.151 100.713C162.088 102.878 161.582 105.008 160.666 106.97C159.749 108.933 158.441 110.688 156.822 112.127L115.767 153.182C113.377 155.58 110.38 157.284 107.097 158.112L94.3471 161.257C93.093 161.551 91.7845 161.521 90.5455 161.168C89.3065 160.816 88.1781 160.153 87.2672 159.242C86.3563 158.331 85.6931 157.202 85.3405 155.963C84.9878 154.724 84.9574 153.416 85.2521 152.162L88.3971 139.412C89.2471 136.097 90.9471 133.122 93.3271 130.742Z" fill="url(#paint1_linear_11205_3510)"/>
<path d="M145.811 84.8574C147.907 84.7957 149.995 85.1634 151.944 85.9375C153.894 86.7117 155.666 87.8759 157.149 89.3594C158.633 90.8429 159.797 92.6146 160.571 94.5645C161.345 96.5142 161.713 98.6014 161.651 100.698C161.59 102.795 161.1 104.858 160.213 106.759C159.325 108.66 158.058 110.359 156.49 111.753L156.479 111.763L156.469 111.773L115.413 152.828V152.829C113.232 155.017 110.532 156.611 107.57 157.466L106.978 157.626L94.2324 160.77C93.0614 161.045 91.8396 161.017 90.6826 160.688C89.5255 160.358 88.4718 159.738 87.6211 158.888C86.7704 158.037 86.1506 156.983 85.8213 155.826C85.492 154.669 85.4631 153.446 85.7383 152.275L88.8818 139.536C89.7097 136.308 91.3644 133.412 93.6807 131.096L134.735 90.04L134.746 90.0303L134.756 90.0186C136.149 88.4505 137.849 87.1835 139.75 86.2959C141.651 85.4084 143.714 84.9192 145.811 84.8574ZM50.9971 26.0117H118.997C125.627 26.0117 131.986 28.6456 136.675 33.334C141.363 38.0224 143.997 44.3813 143.997 51.0117V76.0449C141.45 76.2424 138.913 76.8255 136.497 77.7354V51.0117C136.497 46.3704 134.653 41.9196 131.371 38.6377C128.089 35.3558 123.638 33.5117 118.997 33.5117H50.9971C41.3709 33.5117 33.4971 41.3856 33.4971 51.0117V119.012C33.4971 123.653 35.3412 128.104 38.623 131.386C41.9049 134.668 46.3558 136.512 50.9971 136.512H79.8965L79.6748 137.223L79.667 137.25L77.9766 144.012H50.9971C44.3667 144.012 38.0077 141.378 33.3193 136.689C28.6309 132.001 25.9971 125.642 25.9971 119.012V51.0117C25.9971 44.3813 28.6309 38.0224 33.3193 33.334C38.0077 28.6456 44.3667 26.0117 50.9971 26.0117ZM72.4062 59.5957C72.9421 59.5576 73.4801 59.6354 73.9834 59.8232C74.4867 60.0111 74.9433 60.3056 75.3232 60.6855C75.7031 61.0655 75.9977 61.522 76.1855 62.0254C76.3734 62.5287 76.4512 63.0666 76.4131 63.6025C76.375 64.1385 76.222 64.6601 75.9648 65.1318C75.7077 65.6036 75.3517 66.0146 74.9219 66.3369L74.8936 66.3584L74.8682 66.3838L56.6777 84.6592L56.3262 85.0117L56.6777 85.3643L74.8389 103.61C75.3688 104.328 75.6258 105.212 75.5625 106.103C75.4985 107.003 75.1119 107.85 74.4736 108.488C73.8353 109.127 72.9883 109.513 72.0879 109.577C71.1987 109.64 70.3169 109.384 69.5996 108.856L48.375 87.6328C47.6904 86.9323 47.3076 85.9914 47.3076 85.0117C47.3076 84.0318 47.6901 83.0903 48.375 82.3896L48.376 82.3906L69.626 61.1406L69.6504 61.1152L69.6719 61.0869C69.9942 60.6571 70.4052 60.3011 70.877 60.0439C71.3487 59.7868 71.8703 59.6338 72.4062 59.5957ZM97.9062 60.4463C98.7954 60.3831 99.6772 60.6391 100.395 61.167L121.618 82.3896C122.303 83.0903 122.687 84.0316 122.687 85.0117C122.687 85.9916 122.303 86.9322 121.618 87.6328L100.395 108.856C99.6772 109.384 98.7954 109.64 97.9062 109.577C97.0058 109.513 96.1588 109.127 95.5205 108.488C94.8822 107.85 94.4956 107.003 94.4316 106.103C94.3683 105.212 94.6246 104.328 95.1543 103.61L113.316 85.3643L113.668 85.0117L113.316 84.6592L95.1543 66.4121C94.6249 65.6943 94.3684 64.8112 94.4316 63.9209C94.4956 63.0205 94.8822 62.1734 95.5205 61.5352C96.1588 60.8969 97.0058 60.5103 97.9062 60.4463Z" stroke="url(#paint2_linear_11205_3510)"/>
<defs>
<radialGradient id="paint0_radial_11205_3510" cx="0" cy="0" r="1" gradientTransform="matrix(-110.157 202.091 -147.889 -107.037 167.686 -7.59145)" gradientUnits="userSpaceOnUse">
<stop stop-color="#076EFF"/>
<stop offset="1" stop-color="#0C0C0D" stop-opacity="0"/>
</radialGradient>
<linearGradient id="paint1_linear_11205_3510" x1="99.7238" y1="93.9421" x2="151.479" y2="118.408" gradientUnits="userSpaceOnUse">
<stop stop-color="#446EFF"/>
<stop offset="0.332891" stop-color="#2E96FF"/>
<stop offset="0.72241" stop-color="#B1C5FF"/>
</linearGradient>
<linearGradient id="paint2_linear_11205_3510" x1="42.0028" y1="55.6103" x2="153.448" y2="93.1854" gradientUnits="userSpaceOnUse">
<stop stop-color="#B1C5FF"/>
<stop offset="0.7" stop-color="#217BFE"/>
<stop offset="1" stop-opacity="0"/>
</linearGradient>
</defs>
</svg>
