<svg width="160" height="160" viewBox="0 0 160 160" fill="none" xmlns="http://www.w3.org/2000/svg">
<path fill-rule="evenodd" clip-rule="evenodd" d="M67.3551 136.01H123.995H125.115C131.195 135.37 135.995 130.25 135.995 124.01V86.8905C135.355 80.8105 130.235 76.0105 123.995 76.0105H122.155L140.635 58.4105L141.435 57.4505C145.355 52.7305 144.955 45.7705 140.555 41.3705L118.475 19.6105L117.515 18.8105C115.18 16.9904 112.254 16.098 109.301 16.3047C106.347 16.5114 103.574 17.8028 101.515 19.9305L83.9951 38.0105V34.8905C83.3551 28.8105 78.2351 24.0105 71.9951 24.0105H34.8751C28.7951 24.6505 23.9951 29.7705 23.9951 36.0105V78.8105C25.1102 77.8494 26.1781 76.8349 27.1951 75.7705C28.5551 74.2505 30.2351 73.2905 31.9951 72.6505V35.2905C32.1655 34.3586 32.6611 33.5175 33.3936 32.9169C34.1261 32.3162 35.048 31.995 35.9951 32.0105H71.9951L72.7151 32.0905L73.3551 32.2505C74.1282 32.53 74.7964 33.0409 75.2688 33.7137C75.7411 34.3864 75.9948 35.1884 75.9951 36.0105V76.0105H45.0351C48.1323 79.2964 51.7893 82.0052 55.8351 84.0105H75.9951V128.01H70.4751C69.7551 130.89 68.6351 133.61 67.3551 136.01ZM83.9951 84.0105H123.995H124.715C125.647 84.1809 126.488 84.6764 127.089 85.4089C127.689 86.1414 128.011 87.0633 127.995 88.0105V124.73C127.825 125.662 127.329 126.503 126.597 127.104C125.864 127.705 124.942 128.026 123.995 128.01H83.9951V84.0105ZM83.9951 76.0105V61.6105L98.3151 76.0105H83.9951Z" fill="url(#paint0_radial_11141_3570)"/>
<path d="M39.0351 81.2905C43.0351 85.5305 50.8751 92.3305 60.4751 93.6905C61.4238 93.8046 62.3002 94.2546 62.9459 94.9589C63.5915 95.6633 63.9637 96.5755 63.9951 97.5305V116.17C63.9951 141.13 41.7551 150.17 36.8751 151.85C36.3047 152.046 35.6856 152.046 35.1151 151.85C30.3151 150.25 7.99512 141.13 7.99512 116.17V97.5305C7.99512 95.6105 9.59512 94.0105 11.5151 93.6905C19.8038 91.9559 27.3181 87.6099 32.9551 81.2905C34.5551 79.6105 37.4351 79.6105 39.0351 81.2905Z" fill="url(#paint1_linear_11141_3570)"/>
<path d="M33.3174 81.6357C34.7202 80.1628 37.2698 80.162 38.6729 81.6348C42.694 85.8969 50.6328 92.8011 60.4053 94.1855L60.415 94.1865C61.2451 94.2864 62.0122 94.6806 62.5771 95.2969C63.1421 95.9132 63.4677 96.7113 63.4951 97.5469V116.171C63.495 128.481 58.018 136.854 51.9297 142.37C45.8307 147.896 39.1217 150.548 36.7129 151.377C36.2475 151.536 35.7428 151.536 35.2773 151.377L35.2734 151.376L34.7803 151.206C32.0736 150.245 25.8188 147.591 20.0908 142.4C13.9921 136.874 8.49524 128.481 8.49512 116.171V97.5303C8.49523 95.899 9.87239 94.4711 11.5977 94.1836L11.6172 94.1797C20.0052 92.4243 27.6095 88.0273 33.3164 81.6348L33.3174 81.6357ZM109.335 16.8037C111.989 16.618 114.619 17.3583 116.781 18.8887L117.208 19.2051L118.132 19.9746L140.204 41.7266C144.293 45.818 144.772 52.2023 141.39 56.7012L141.051 57.1309L140.27 58.0674L121.811 75.6484L120.905 76.5107H123.995C129.963 76.5107 134.87 81.0971 135.495 86.9189V124.011C135.495 129.98 130.908 134.887 125.085 135.511H68.1758C69.2577 133.373 70.2056 131.006 70.8623 128.511H76.4951V83.5107H55.9561C52.3555 81.7126 49.0704 79.3482 46.2227 76.5107H76.4951V36.0107L76.4814 35.665C76.4193 34.8624 76.1427 34.0891 75.6777 33.4268C75.1464 32.6699 74.395 32.0947 73.5254 31.7803L73.501 31.7715L73.4766 31.7656L72.8359 31.6055L72.8037 31.5977L72.7705 31.5938L72.0508 31.5137L72.0225 31.5107H35.9951C34.9324 31.4953 33.8981 31.8563 33.0762 32.5303C32.2523 33.2059 31.6946 34.1521 31.5029 35.2002L31.4951 35.2451V72.3037C29.8023 72.9614 28.1744 73.9314 26.834 75.4248C26.0822 76.2116 25.3016 76.9709 24.4951 77.7012V36.0107C24.4951 30.0419 29.0826 25.1349 34.9053 24.5107H71.9951C77.9634 24.5107 82.8702 29.0971 83.4951 34.9189V39.2451L84.3545 38.3584L101.874 20.2783C103.847 18.2394 106.505 17.002 109.335 16.8037ZM83.4951 128.511H123.995V128.51C125.058 128.525 126.092 128.165 126.914 127.491C127.738 126.815 128.296 125.869 128.487 124.82L128.495 124.775V88.0107C128.511 86.948 128.15 85.9138 127.476 85.0918C126.8 84.2677 125.853 83.7102 124.805 83.5186L124.761 83.5107H83.4951V128.511ZM83.4951 76.5107H99.5176L98.6699 75.6582L84.3496 61.2578L83.4951 60.3984V76.5107Z" stroke="url(#paint2_linear_11141_3570)"/>
<defs>
<radialGradient id="paint0_radial_11141_3570" cx="0" cy="0" r="1" gradientTransform="matrix(-103.28 163.928 -138.656 -86.8238 141.307 -10.5766)" gradientUnits="userSpaceOnUse">
<stop stop-color="#076EFF"/>
<stop offset="1" stop-color="#0C0C0D" stop-opacity="0"/>
</radialGradient>
<linearGradient id="paint1_linear_11141_3570" x1="26.6543" y1="32.2126" x2="121.868" y2="79.9497" gradientUnits="userSpaceOnUse">
<stop stop-color="#446EFF"/>
<stop offset="0.332891" stop-color="#2E96FF"/>
<stop offset="0.72241" stop-color="#B1C5FF"/>
</linearGradient>
<linearGradient id="paint2_linear_11141_3570" x1="24.4378" y1="46.3242" x2="135.506" y2="83.6909" gradientUnits="userSpaceOnUse">
<stop stop-opacity="0"/>
<stop offset="0.3" stop-color="#217BFE"/>
<stop offset="1" stop-color="#B1C5FF"/>
</linearGradient>
</defs>
</svg>
