<svg width="160" height="160" viewBox="0 0 160 160" fill="none" xmlns="http://www.w3.org/2000/svg">
<path fill-rule="evenodd" clip-rule="evenodd" d="M23.0324 31.0392C27.5332 26.5383 33.6377 24.0098 40.0029 24.0098H120.003C126.368 24.0098 132.473 26.5383 136.973 31.0392C141.474 35.5401 144.003 41.6446 144.003 48.0098V76.2498C141.504 74.7857 138.811 73.6815 136.003 72.9698V48.0098C136.003 43.7663 134.317 39.6966 131.317 36.6961C128.316 33.6955 124.246 32.0098 120.003 32.0098H68.0029V120.01H83.0429L75.5229 127.53L75.1229 128.01H40.0029C33.6377 128.01 27.5332 125.481 23.0324 120.98C18.5315 116.479 16.0029 110.375 16.0029 104.01V48.0098C16.0029 41.6446 18.5315 35.5401 23.0324 31.0392Z" fill="url(#paint0_radial_11216_3510)"/>
<path fill-rule="evenodd" clip-rule="evenodd" d="M81.2033 150.809C82.0033 151.609 82.8833 152.009 84.0033 152.009H100.003C100.883 152.009 101.603 151.769 102.163 151.449C102.723 151.129 103.123 150.649 103.363 150.089C103.615 149.476 103.777 148.829 103.843 148.169L104.003 146.169V144.009L108.483 143.849C109.372 143.823 110.222 143.483 110.883 142.889C111.443 142.329 111.763 141.529 111.843 140.489L112.003 136.009H116.003C116.803 136.009 117.603 135.849 118.163 135.449C118.662 135.094 119.073 134.629 119.363 134.089C119.672 133.492 119.863 132.84 119.923 132.169C120.093 130.843 120.12 129.502 120.003 128.169V126.569C121.363 127.129 122.803 127.449 124.163 127.689C127.954 128.395 131.861 128.134 135.524 126.932C139.187 125.729 142.488 123.624 145.123 120.809C149.451 116.276 151.908 110.276 152.003 104.009C152.038 100.841 151.432 97.6989 150.223 94.7708C149.013 91.8426 147.224 89.189 144.963 86.9693C141.253 83.2778 136.439 80.9001 131.252 80.1985C126.066 79.4968 120.792 80.5097 116.235 83.0829C111.678 85.656 108.086 89.6483 106.008 94.4516C103.93 99.2549 103.479 104.606 104.723 109.689L81.2033 133.209C80.4033 134.009 80.0033 134.889 80.0033 136.009V148.009C80.0033 149.129 80.4033 150.009 81.2033 150.809ZM140.003 98.0093C140.003 96.3293 139.443 94.8893 138.243 93.7693C137.123 92.5693 135.603 92.0093 134.003 92.0093C133.214 91.9963 132.43 92.1459 131.7 92.4486C130.971 92.7514 130.312 93.201 129.763 93.7693C128.563 94.8893 128.003 96.4093 128.003 98.0093C127.99 98.799 128.14 99.5828 128.443 100.312C128.745 101.042 129.195 101.701 129.763 102.249C130.312 102.818 130.971 103.267 131.7 103.57C132.43 103.873 133.214 104.022 134.003 104.009C134.793 104.022 135.577 103.873 136.306 103.57C137.036 103.267 137.695 102.818 138.243 102.249C139.443 101.129 140.003 99.6093 140.003 98.0093Z" fill="url(#paint1_radial_11216_3510)"/>
<path fill-rule="evenodd" clip-rule="evenodd" d="M81.2033 150.809C82.0033 151.609 82.8833 152.009 84.0033 152.009H100.003C100.883 152.009 101.603 151.769 102.163 151.449C102.723 151.129 103.123 150.649 103.363 150.089C103.615 149.476 103.777 148.829 103.843 148.169L104.003 146.169V144.009L108.483 143.849C109.372 143.823 110.222 143.483 110.883 142.889C111.443 142.329 111.763 141.529 111.843 140.489L112.003 136.009H116.003C116.803 136.009 117.603 135.849 118.163 135.449C118.662 135.094 119.073 134.629 119.363 134.089C119.672 133.492 119.863 132.84 119.923 132.169C120.093 130.843 120.12 129.502 120.003 128.169V126.569C121.363 127.129 122.803 127.449 124.163 127.689C127.954 128.395 131.861 128.134 135.524 126.932C139.187 125.729 142.488 123.624 145.123 120.809C149.451 116.276 151.908 110.276 152.003 104.009C152.038 100.841 151.432 97.6989 150.223 94.7708C149.013 91.8426 147.224 89.189 144.963 86.9693C141.253 83.2778 136.439 80.9001 131.252 80.1985C126.066 79.4968 120.792 80.5097 116.235 83.0829C111.678 85.656 108.086 89.6483 106.008 94.4516C103.93 99.2549 103.479 104.606 104.723 109.689L81.2033 133.209C80.4033 134.009 80.0033 134.889 80.0033 136.009V148.009C80.0033 149.129 80.4033 150.009 81.2033 150.809ZM140.003 98.0093C140.003 96.3293 139.443 94.8893 138.243 93.7693C137.123 92.5693 135.603 92.0093 134.003 92.0093C133.214 91.9963 132.43 92.1459 131.7 92.4486C130.971 92.7514 130.312 93.201 129.763 93.7693C128.563 94.8893 128.003 96.4093 128.003 98.0093C127.99 98.799 128.14 99.5828 128.443 100.312C128.745 101.042 129.195 101.701 129.763 102.249C130.312 102.818 130.971 103.267 131.7 103.57C132.43 103.873 133.214 104.022 134.003 104.009C134.793 104.022 135.577 103.873 136.306 103.57C137.036 103.267 137.695 102.818 138.243 102.249C139.443 101.129 140.003 99.6093 140.003 98.0093Z" fill="url(#paint2_linear_11216_3510)"/>
<path d="M116.48 83.5186C120.943 80.999 126.107 80.0073 131.186 80.6943C136.264 81.3814 140.978 83.7097 144.61 87.3242L144.613 87.3262C146.826 89.4987 148.577 92.0961 149.761 94.9619C150.944 97.8271 151.537 100.902 151.503 104.002C151.409 110.142 149.002 116.021 144.762 120.464L144.758 120.468C142.18 123.221 138.951 125.28 135.368 126.456C131.785 127.632 127.963 127.888 124.255 127.198V127.197H124.25C122.902 126.959 121.504 126.647 120.193 126.107L119.503 125.822V128.191L119.505 128.213C119.618 129.51 119.593 130.815 119.428 132.106L119.426 132.115L119.425 132.124C119.37 132.729 119.198 133.318 118.919 133.858C118.665 134.327 118.307 134.732 117.873 135.042C117.434 135.356 116.754 135.51 116.003 135.51H111.521L111.504 135.991L111.345 140.451C111.271 141.404 110.984 142.075 110.537 142.526C109.965 143.035 109.234 143.327 108.469 143.35H108.466L103.985 143.51L103.503 143.526V146.153L103.346 148.119C103.284 148.728 103.135 149.326 102.903 149.893C102.703 150.361 102.373 150.754 101.915 151.016C101.424 151.296 100.788 151.51 100.003 151.51H84.0029C83.028 151.51 82.2719 151.171 81.5566 150.456C80.8414 149.741 80.503 148.985 80.5029 148.01V136.01C80.5029 135.035 80.8413 134.278 81.5566 133.562L105.077 110.043L105.275 109.844L105.209 109.57C103.99 104.593 104.432 99.3535 106.467 94.6504C108.502 89.9473 112.018 86.0381 116.48 83.5186ZM40.0029 24.5098H120.003C126.236 24.5098 132.213 26.9855 136.62 31.3926C141.027 35.7997 143.503 41.7772 143.503 48.0098V75.3926C141.292 74.178 138.942 73.2346 136.503 72.584V48.0098C136.503 43.6337 134.764 39.4371 131.67 36.3428C128.576 33.2484 124.379 31.5098 120.003 31.5098H67.5029V120.51H81.8359L75.1689 127.176L75.1533 127.192L75.1387 127.21L74.8887 127.51H40.0029C33.7703 127.51 27.7928 125.034 23.3857 120.627C18.9786 116.22 16.5029 110.242 16.5029 104.01V48.0098C16.5029 41.7772 18.9786 35.7997 23.3857 31.3926C27.7928 26.9855 33.7703 24.5098 40.0029 24.5098ZM134.003 91.5098C133.148 91.4969 132.299 91.6593 131.509 91.9873C130.724 92.313 130.014 92.7946 129.422 93.4033C128.109 94.6289 127.505 96.2856 127.503 98.001C127.489 98.8591 127.651 99.7112 127.98 100.504C128.307 101.291 128.792 102.002 129.403 102.596V102.597C129.999 103.214 130.716 103.703 131.509 104.032C132.296 104.359 133.143 104.52 133.995 104.508V104.509C133.998 104.509 134 104.508 134.003 104.508C134.006 104.508 134.009 104.509 134.012 104.509L134.011 104.508C134.864 104.52 135.71 104.359 136.498 104.032C137.291 103.703 138.007 103.213 138.603 102.596C139.904 101.37 140.503 99.7196 140.503 98.0098C140.503 96.2077 139.897 94.6286 138.584 93.4033C137.361 92.1077 135.715 91.5115 134.011 91.5098H134.003Z" stroke="url(#paint3_linear_11216_3510)"/>
<defs>
<radialGradient id="paint0_radial_11216_3510" cx="0" cy="0" r="1" gradientTransform="matrix(-109.626 190.279 -147.176 -100.78 157.506 -7.15851)" gradientUnits="userSpaceOnUse">
<stop stop-color="#076EFF"/>
<stop offset="1" stop-color="#0C0C0D" stop-opacity="0"/>
</radialGradient>
<radialGradient id="paint1_radial_11216_3510" cx="0" cy="0" r="1" gradientTransform="matrix(-109.626 190.279 -147.176 -100.78 157.506 -7.15851)" gradientUnits="userSpaceOnUse">
<stop stop-color="#076EFF"/>
<stop offset="1" stop-color="#0C0C0D" stop-opacity="0"/>
</radialGradient>
<linearGradient id="paint2_linear_11216_3510" x1="89.8715" y1="88.4403" x2="140.298" y2="113.636" gradientUnits="userSpaceOnUse">
<stop stop-color="#446EFF"/>
<stop offset="0.332891" stop-color="#2E96FF"/>
<stop offset="0.72241" stop-color="#B1C5FF"/>
</linearGradient>
<linearGradient id="paint3_linear_11216_3510" x1="32.4291" y1="52.3491" x2="142.026" y2="91.4055" gradientUnits="userSpaceOnUse">
<stop stop-color="#B1C5FF"/>
<stop offset="0.7" stop-color="#217BFE"/>
<stop offset="1" stop-opacity="0"/>
</linearGradient>
</defs>
</svg>
