<svg width="16" height="16" viewBox="0 0 16 16" fill="none" xmlns="http://www.w3.org/2000/svg">
<path d="M5.32183 11.6632L4.92625 11.5356C4.69085 11.4597 4.57099 11.1876 4.66641 10.9509C4.97877 10.1759 5.23339 9.48356 5.45313 8.79851C5.27987 8.78951 5.10208 8.77934 4.91904 8.76801C4.71741 8.75553 4.55383 8.59233 4.53274 8.38302L4.48411 7.90041C4.45708 7.63212 4.67066 7.40416 4.92891 7.42327C5.24552 7.44671 5.54652 7.46672 5.83537 7.48314C6.05461 6.64472 6.24514 5.74917 6.44519 4.67043C6.49431 4.40557 6.76091 4.24961 7.00263 4.34626L7.43744 4.5201C7.62601 4.5955 7.73496 4.80238 7.69435 5.00854C7.50628 5.96315 7.32572 6.77239 7.12563 7.53345C7.74163 7.54462 8.31976 7.53409 8.90651 7.49971C8.70994 6.74846 8.53193 5.94905 8.34664 5.00854C8.30603 4.80238 8.41498 4.5955 8.60355 4.5201L9.03836 4.34626C9.28008 4.24961 9.54668 4.40557 9.5958 4.67043C9.78848 5.70937 9.97231 6.57839 10.1815 7.39011C10.5109 7.35346 10.8519 7.3097 11.2114 7.2585C11.4556 7.22374 11.6768 7.4148 11.6863 7.67137L11.7022 8.10252C11.7104 8.32546 11.5535 8.51848 11.341 8.54637C11.063 8.58288 10.7967 8.61598 10.5394 8.64574C10.77 9.38102 11.039 10.1183 11.3746 10.9509C11.47 11.1876 11.3501 11.4597 11.1147 11.5356L10.7192 11.6632C10.5146 11.7292 10.2951 11.6212 10.2142 11.4146C9.8306 10.4342 9.52875 9.59868 9.27041 8.77029C8.42307 8.83646 7.62708 8.86045 6.74715 8.84509C6.494 9.64909 6.19885 10.4637 5.82675 11.4146C5.74591 11.6212 5.52637 11.7292 5.32183 11.6632Z" fill="black"/>
<path d="M14.6783 7.59363C16.1352 11.8275 12.6739 14.9421 10.7611 15.9702C13.7849 13.4117 12.5823 9.55634 12.4792 7.59363C12.3908 5.91131 13.9223 5.87626 14.6783 7.59363Z" fill="black"/>
<path d="M2.61047 12.8439C-1.03601 10.334 -0.0815343 5.72771 0.851515 3.73831C-0.0773391 7.63204 3.14363 9.99307 4.37488 11.505C5.43024 12.801 4.22196 13.7616 2.61047 12.8439Z" fill="black"/>
<path d="M1.86608 4.64345C3.0459 0.320762 7.63176 -0.213923 9.77721 0.05907C5.86212 0.392977 4.68607 4.25683 3.66974 5.92675C2.79861 7.35811 1.52283 6.49313 1.86608 4.64345Z" fill="black"/>
<path d="M10.2952 14.9377C6.66706 17.475 2.81746 14.8774 1.34618 13.2615C4.55545 15.573 7.89157 13.3846 9.72255 12.772C11.292 12.2468 11.724 13.746 10.2952 14.9377Z" fill="black"/>
<path d="M9.52254 1.21095C13.9216 1.19279 15.6738 5.54842 16 7.7285C14.6197 3.97662 10.6546 3.87362 8.80263 3.33045C7.21526 2.86487 7.68415 1.37732 9.52254 1.21095Z" fill="black"/>
</svg>
