<svg xmlns="http://www.w3.org/2000/svg" version="1.1" xmlns:xlink="http://www.w3.org/1999/xlink" width="1000" height="1000"><g clip-path="url(#SvgjsClipPath1009)"><rect width="1000" height="1000" fill="#ffffff"></rect><g transform="matrix(0.49469964664310956,0,0,0.49469964664310956,150,150)"><svg xmlns="http://www.w3.org/2000/svg" version="1.1" xmlns:xlink="http://www.w3.org/1999/xlink" width="1415" height="1415"><svg width="1415" height="1415" viewBox="0 0 1415 1415" fill="none" xmlns="http://www.w3.org/2000/svg">
<path d="M776.475 483.585V735.141L883.487 614.435V483.585H776.475Z" fill="black"></path>
<path d="M957.978 742.821C954.393 746.95 950.865 749.987 947.391 753.961V1104.36H1055.92V893.556C1005.27 859.303 968.982 805.418 957.978 742.821Z" fill="black"></path>
<path d="M583.751 483.585H478.26V748.834C481.303 874.105 617.731 943.587 709.529 930.4C795.992 915.024 851.25 863.924 947.391 753.961C950.865 749.987 954.393 746.95 957.978 742.821C955.686 729.786 954.491 716.374 954.491 702.682C954.491 621.167 998.104 548.847 1062.01 507.929V507.83C1090.43 489.891 1123.05 477.998 1158.06 473.957C1065.85 484.599 1004.91 533.614 953.477 587.047C817.501 742.06 701.779 891.401 613.912 794.338C589.83 767.736 583.751 730.127 583.751 694.243V483.585Z" fill="black"></path>
<path d="M0 930.4V310.641H105.491V506.408C262.713 436.418 393.563 539.374 406.749 671.745V930.4H299.229V671.745C281.375 562.952 132.786 562.622 105.491 671.745V930.4H0Z" fill="black"></path>
<path fill-rule="evenodd" clip-rule="evenodd" d="M1184.75 932.936C1311.91 932.936 1415 829.848 1415 702.682C1415 575.516 1311.91 472.427 1184.75 472.427C1175.39 472.728 1166.51 473.242 1158.06 473.957C1123.05 477.998 1090.43 489.891 1062.01 507.83V507.929C998.104 548.847 954.491 621.167 954.491 702.682C954.491 716.374 955.686 729.786 957.978 742.821C968.982 805.418 1005.27 859.303 1055.92 893.556C1092.69 918.418 1137.02 932.936 1184.75 932.936ZM1309.51 701.16C1309.51 770.625 1253.2 826.938 1183.73 826.938C1114.27 826.938 1057.95 770.625 1057.95 701.16C1057.95 631.695 1114.27 575.383 1183.73 575.383C1253.2 575.383 1309.51 631.695 1309.51 701.16Z" fill="black"></path>
</svg></svg></g></g><defs><clipPath id="SvgjsClipPath1009"><rect width="1000" height="1000" x="0" y="0" rx="350" ry="350"></rect></clipPath></defs></svg>