<svg width="83" height="52" viewBox="0 0 83 52" fill="none" xmlns="http://www.w3.org/2000/svg">
<path d="M29.8258 10.371C24.3101 2.84954 20.1728 0.216666 17.4139 2.47239" stroke="#F8312F" stroke-width="3.38426" stroke-linecap="round"/>
<path d="M54.647 10.3748C60.1652 2.85517 64.3033 0.223646 67.0614 2.48027" stroke="#F8312F" stroke-width="3.38426" stroke-linecap="round"/>
<path d="M72.5978 9.96875C78.3256 9.96875 83.0966 14.6828 81.6793 20.2325C79.8517 27.3887 76.1295 33.9916 70.8184 39.3027C63.0385 47.0825 52.4868 51.4532 41.4845 51.4532C30.4821 51.4532 19.9304 47.0825 12.1505 39.3027C6.83942 33.9916 3.11715 27.3887 1.28961 20.2325C-0.127668 14.6828 4.6433 9.96876 10.3711 9.96876L72.5978 9.96875Z" fill="#FF4D4D"/>
<path d="M27.7596 28.8454C30.7906 28.8454 33.2477 26.3883 33.2477 23.3573C33.2477 20.3263 30.7906 17.8691 27.7596 17.8691C24.7286 17.8691 22.2715 20.3263 22.2715 23.3573C22.2715 26.3883 24.7286 28.8454 27.7596 28.8454Z" fill="#050810"/>
<path d="M55.201 28.8454C58.232 28.8454 60.6891 26.3883 60.6891 23.3573C60.6891 20.3263 58.232 17.8691 55.201 17.8691C52.17 17.8691 49.7129 20.3263 49.7129 23.3573C49.7129 26.3883 52.17 28.8454 55.201 28.8454Z" fill="#050810"/>
<path d="M28.6754 24.7258C29.9383 24.7258 30.9621 23.702 30.9621 22.4391C30.9621 21.1761 29.9383 20.1523 28.6754 20.1523C27.4125 20.1523 26.3887 21.1761 26.3887 22.4391C26.3887 23.702 27.4125 24.7258 28.6754 24.7258Z" fill="#00E5CC"/>
<path d="M56.1129 24.7258C57.3758 24.7258 58.3996 23.702 58.3996 22.4391C58.3996 21.1761 57.3758 20.1523 56.1129 20.1523C54.85 20.1523 53.8262 21.1761 53.8262 22.4391C53.8262 23.702 54.85 24.7258 56.1129 24.7258Z" fill="#00E5CC"/>
</svg>
