<svg width="29" height="15" viewBox="0 0 29 15" fill="none" xmlns="http://www.w3.org/2000/svg">
<path d="M10.2252 2.73709C8.34734 0.859216 6.93894 0.201961 6 0.765322" stroke="#94A5F4" stroke-width="1.14195" stroke-linecap="round"/>
<path d="M18.6758 2.73709C20.5537 0.859216 21.9621 0.201961 22.901 0.765322" stroke="#94A5F4" stroke-width="1.14195" stroke-linecap="round"/>
<path d="M28.918 14.2869L28.89 14.1089C28.7273 13.1144 28.4619 12.1395 28.098 11.1999C27.6608 10.0683 27.0847 8.99541 26.383 8.00586C25.2665 6.42746 23.8486 5.08567 22.211 4.05785C21.2791 3.53817 20.7083 3.25221 19.693 2.79686C18.0357 2.1619 16.2757 1.83749 14.501 1.83986H14.351C12.5884 1.85672 10.8437 2.19562 9.203 2.83986C8.35109 3.21043 7.8034 3.47054 6.815 4.04286C5.16725 5.0728 3.7409 6.42029 2.619 8.00686C1.91666 8.99602 1.34054 10.069 0.903999 11.2009C0.540375 12.141 0.274638 13.1162 0.111 14.1109L0.0830002 14.2879C0.0510002 14.5009 0.023 14.7149 0 14.9309H29C28.9767 14.7159 28.9487 14.5016 28.916 14.2879L28.918 14.2869Z" fill="#94A5F4"/>
<path d="M22.0425 10.8937C22.6225 10.5047 22.7075 9.6057 22.2315 8.8837C21.7545 8.1637 20.8985 7.89471 20.3185 8.28371C19.7385 8.67271 19.6535 9.5717 20.1295 10.2927C20.6065 11.0127 21.4625 11.2837 22.0425 10.8937ZM8.89452 10.2947C9.37052 9.57471 9.28652 8.6747 8.70552 8.2857C8.12552 7.8977 7.26952 8.16571 6.79252 8.88671C6.31652 9.60771 6.40152 10.5067 6.98152 10.8967C7.56152 11.2847 8.41752 11.0167 8.89452 10.2947Z" fill="#202124"/>
<path d="M21.5628 9.96549C21.8737 9.96549 22.1257 9.71351 22.1257 9.40267C22.1257 9.09183 21.8737 8.83984 21.5628 8.83984C21.252 8.83984 21 9.09183 21 9.40267C21 9.71351 21.252 9.96549 21.5628 9.96549Z" fill="#00E5CC"/>
<path d="M7.56283 9.96549C7.87366 9.96549 8.12565 9.71351 8.12565 9.40267C8.12565 9.09183 7.87366 8.83984 7.56283 8.83984C7.25199 8.83984 7 9.09183 7 9.40267C7 9.71351 7.25199 9.96549 7.56283 9.96549Z" fill="#00E5CC"/>
</svg>
